<svg width="60" height="48" viewBox="0 0 60 48" fill="none" xmlns="http://www.w3.org/2000/svg">
<mask id="path-1-inside-1_33_28" fill="white">
<path fill-rule="evenodd" clip-rule="evenodd" d="M45.7697 18.9052C45.7697 22.4678 44.9217 25.8003 43.4473 28.6449C50.8109 32.4969 56.73 39.4152 60 48H0C3.15419 39.7191 8.77334 32.9888 15.7762 29.0654C14.1637 26.131 13.2292 22.6449 13.2292 18.9052C13.2292 8.46417 20.5137 0 29.4995 0C38.4853 0 45.7697 8.46417 45.7697 18.9052Z"/>
</mask>
<path d="M43.4473 28.6449L39.896 26.8042C38.8821 28.7603 39.6409 31.1679 41.5932 32.1892L43.4473 28.6449ZM60 48V52C61.3155 52 62.547 51.3531 63.2935 50.2699C64.0401 49.1867 64.2063 47.8056 63.738 46.5762L60 48ZM0 48L-3.73802 46.5762C-4.2063 47.8056 -4.04012 49.1867 -3.29357 50.2699C-2.54703 51.3531 -1.31557 52 0 52L0 48ZM15.7762 29.0654L17.7313 32.5551C19.6474 31.4816 20.3395 29.0639 19.2818 27.1391L15.7762 29.0654ZM46.9986 30.4856C48.7707 27.0666 49.7697 23.1022 49.7697 18.9052H41.7697C41.7697 21.8335 41.0726 24.534 39.896 26.8042L46.9986 30.4856ZM63.738 46.5762C60.1593 37.1809 53.6236 29.4541 45.3014 25.1005L41.5932 32.1892C47.9981 35.5398 53.3007 41.6495 56.262 49.4238L63.738 46.5762ZM0 52H60V44H0V52ZM13.8211 25.5758C5.91751 30.0038 -0.285393 37.5118 -3.73802 46.5762L3.73802 49.4238C6.59377 41.9264 11.6292 35.9738 17.7313 32.5551L13.8211 25.5758ZM9.22924 18.9052C9.22924 23.3105 10.33 27.4602 12.2706 30.9918L19.2818 27.1391C17.9975 24.8019 17.2292 21.9794 17.2292 18.9052H9.22924ZM29.4995 -4C17.7622 -4 9.22924 6.83953 9.22924 18.9052H17.2292C17.2292 10.0888 23.2652 4 29.4995 4V-4ZM49.7697 18.9052C49.7697 6.83953 41.2368 -4 29.4995 -4V4C35.7338 4 41.7697 10.0888 41.7697 18.9052H49.7697Z" fill="white" mask="url(#path-1-inside-1_33_28)"/>
</svg>
